<svg xmlns="http://www.w3.org/2000/svg" xmlns:xlink="http://www.w3.org/1999/xlink" version="1.1" x="0px" y="0px" viewBox="0 0 100 100" style="enable-background:new 0 0 100 100;" xml:space="preserve"><g><path d="M72,64.9c-1.2-1.2-2.7-1.6-4.2-1.4l-2.6-2.6C70,55,73,47.5,73,39.3C73,20.6,57.9,5.5,39.3,5.5S5.5,20.6,5.5,39.3   C5.5,57.9,20.6,73,39.3,73c8.2,0,15.8-3,21.6-7.9l2.6,2.6c-0.2,1.5,0.2,3.1,1.4,4.2l20.5,20.5c1,1,2.3,1.5,3.5,1.5s2.6-0.5,3.5-1.5   c2-2,2-5.1,0-7.1L72,64.9z M39.3,63c-13.1,0-23.7-10.7-23.7-23.7s10.7-23.7,23.7-23.7S63,26.2,63,39.3S52.3,63,39.3,63z"/></g></svg>